<svg xmlns="http://www.w3.org/2000/svg" width="187.827" height="46.421" viewBox="0 0 187.827 46.421"><path fill="none" stroke="#F60" stroke-width="4" stroke-linecap="square" d="M149.032 22.55c.07-2.29-2.588-8.748-2.588-8.748l-11.995-.455-5.152-2.367-9.526-3.69s-3.151-1.119-11.583-3.075c-8.478-1.968-23.056-1.983-23.794-1.92-.735.062-3.358.321-8.96 1.85-5.604 1.533-25.042 9.61-25.042 9.61h.652c-28.574.464-41.155 8.281-41.155 8.281"/><g fill="#F60"><path d="M9.092 27.682l.187 5.03c.063 1.251.127 2.163.146 2.919h.06c.375-.782.719-1.564 1.451-2.945l2.697-5.004h5.382l-5.988 8.965c-2.45 3.675-4.569 6.047-6.668 7.585-1.877 1.407-4.103 2.059-5.108 2.189L.47 42.59c.736-.157 1.698-.47 2.522-.912 1.044-.547 1.859-1.225 2.374-1.903.169-.208.182-.339.151-.652L3.679 27.682h5.413zM26.043 40.505c.099-.73.23-1.485.329-2.215h-.06c-1.442 1.903-3.333 2.502-4.896 2.502-2.676 0-4.403-1.772-4.14-4.561.401-4.248 3.93-8.835 11.567-8.835 1.924 0 3.907.339 5.195.704l-2.197 6.724c-.431 1.381-1.01 4.013-1.108 5.681h-4.69zm1.997-9.696a6.403 6.403 0 0 0-.924-.078c-2.405 0-4.233 2.788-4.409 4.665-.113 1.199.399 1.824 1.301 1.824.932 0 2.241-.808 3.188-3.831l.844-2.58zM33.47 40.505L39.244 22h5.112l-3.398 10.842h.06c.5-.521.97-1.042 1.435-1.511l3.532-3.648h6.314l-6.723 5.291 3.289 7.531h-5.743l-1.711-5.134-1.659 1.329-1.17 3.806-5.112-.001z"/><path d="M59.057 40.505c.099-.73.23-1.485.329-2.215h-.06c-1.442 1.903-3.333 2.502-4.896 2.502-2.676 0-4.403-1.772-4.14-4.561.401-4.248 3.93-8.835 11.567-8.835 1.924 0 3.907.339 5.196.704l-2.197 6.724c-.432 1.381-1.01 4.013-1.108 5.681h-4.691zm1.996-9.696a6.394 6.394 0 0 0-.925-.078c-2.405 0-4.232 2.788-4.409 4.665-.113 1.199.399 1.824 1.301 1.824.932 0 2.241-.808 3.188-3.831l.845-2.58zM66.663 40.505l2.319-7.376c.613-2.033 1.014-4.378 1.266-5.447h4.42c-.141.859-.28 1.694-.451 2.554h.091c1.239-1.668 3.004-2.841 5.048-2.841.301 0 .572 0 .87.026l-1.428 4.301h-.662c-3.037 0-4.254 2.059-4.986 4.405l-1.345 4.378h-5.142zM95.396 32.659c-.469 4.979-4.676 8.132-9.848 8.132-3.788 0-6.306-2.007-5.994-5.316.425-4.509 4.431-8.08 9.873-8.08 3.97 0 6.254 2.242 5.969 5.264zm-10.512 2.737c-.118 1.251.47 2.033 1.703 2.033 2.105 0 3.34-2.893 3.512-4.717.101-1.069-.327-1.955-1.68-1.955-2.195 0-3.387 3.075-3.535 4.639zM113.694 27.682l-2.63 8.444c-.553 1.72-.932 3.179-1.285 4.378h-4.51l.425-1.955h-.06c-1.751 1.668-3.549 2.241-5.263 2.241-2.555 0-3.603-1.329-3.393-3.545.068-.729.235-1.538.531-2.449l2.204-7.115h5.142l-2.11 6.75c-.169.521-.321 1.173-.363 1.616-.056.6.192 1.147 1.004 1.147 1.323 0 2.629-1.407 3.398-3.831l1.768-5.681h5.142zM113.056 40.505L118.89 22h5.112l-5.834 18.505h-5.112zM134.654 39.775c-2.063.834-4.396 1.016-5.899 1.016-4.33 0-6.519-1.98-6.182-5.551.369-3.91 3.988-7.845 9.58-7.845 3.067 0 5.335 1.459 5.086 4.092-.302 3.205-3.792 4.509-9.882 4.353.033.287.181.625.461.859.531.417 1.411.652 2.584.652 1.503 0 2.942-.261 4.283-.782l-.031 3.206zm-2.19-8.34c.042-.444-.403-.834-1.245-.834-1.834 0-2.849 1.199-3.078 2.033 3.125.025 4.245-.365 4.321-1.174l.002-.025zM137.2 40.505l2.319-7.376c.612-2.033 1.014-4.378 1.266-5.447h4.42c-.141.859-.28 1.694-.451 2.554h.09c1.24-1.668 3.004-2.841 5.049-2.841.301 0 .572 0 .869.026l-1.427 4.301h-.662c-3.037 0-4.254 2.059-4.986 4.405l-1.345 4.378H137.2z"/></g><path fill="#F60" d="M8.554 22.95c-.647-.395-1.15-.934-1.453-1.551-1.586.889-2.627 1.966-3.058 3.456l5.154.01s.519-.433 1.539-1.13c-.775-.203-1.578-.415-2.182-.785z"/><g fill="#F60"><path d="M151.295 40.821c-1.035 0-1.73-.698-1.73-1.64 0-1.099.865-2.042 2.124-2.042 1.034 0 1.768.681 1.768 1.693 0 1.169-.902 1.989-2.143 1.989h-.019zM161.297 40.402c-.639.297-1.56.437-2.595.437-2.237 0-4.024-1.222-4.024-3.63 0-3.088 2.576-5.339 6.187-5.339.752 0 1.373.105 1.843.261l-.752 2.251c-.301-.105-.639-.157-1.109-.157-1.749 0-2.82 1.239-2.82 2.67 0 1.099.827 1.57 1.617 1.57.715 0 1.222-.14 1.692-.314l-.039 2.251zM172.127 35.394c0 3.333-2.445 5.444-5.679 5.444-2.369 0-4.061-1.344-4.061-3.56 0-3.019 2.294-5.409 5.698-5.409 2.481.001 4.042 1.501 4.042 3.525zm-6.412 1.832c0 .838.413 1.361 1.185 1.361 1.316 0 1.917-1.937 1.917-3.159 0-.715-.319-1.308-1.166-1.308-1.372.001-1.936 2.06-1.936 3.106zM172.427 40.646l1.128-5.671a53.76 53.76 0 0 0 .489-2.914h2.746l-.132 1.309h.019c.846-1.082 1.955-1.5 3.122-1.5 1.504 0 2.125.89 2.2 1.5a3.91 3.91 0 0 1 3.103-1.5c1.579 0 2.256.942 2.256 2.321 0 .349-.075 1.064-.151 1.483l-.996 4.973h-3.103l.903-4.589c.075-.331.131-.681.131-.994 0-.471-.244-.82-.714-.82-.809 0-1.505 1.082-1.843 2.74l-.733 3.664h-3.084l.921-4.589c.056-.331.113-.663.113-.942 0-.523-.188-.873-.658-.873-.808 0-1.579 1.099-1.899 2.74l-.714 3.664h-3.104v-.002z"/></g><path fill="#F60" d="M50.611 15.717l.221-.197-.214-.438"/><path fill="#F60" d="M50.612 15.581l.207-.206-.231-.429"/><path fill="#F60" d="M50.498 15.455h.153v.188h-.153z"/></svg>