<svg xmlns="http://www.w3.org/2000/svg" viewBox="0 0 512 512"><path d="M458.667 85.333h-80.832l-35.883-39.189a10.664 10.664 0 0 0-7.851-3.477H177.899a10.666 10.666 0 0 0-7.872 3.477l-35.861 39.189H53.333C23.878 85.333 0 109.211 0 138.667V416c0 29.455 23.878 53.333 53.333 53.333h405.333C488.122 469.333 512 445.455 512 416V138.667c0-29.456-23.878-53.334-53.333-53.334z" fill="#fff"/><path fill="#009cbf" d="M458.667 469.333H53.333C23.878 469.333 0 445.455 0 416V138.667c0-29.455 23.878-53.333 53.333-53.333h80.832l35.883-39.189a10.664 10.664 0 0 1 7.851-3.477H334.08a10.666 10.666 0 0 1 7.872 3.477l35.883 39.189h80.832c29.455 0 53.333 23.878 53.333 53.333V416c0 29.455-23.878 53.333-53.333 53.333zM53.333 106.667c-17.673 0-32 14.327-32 32V416c0 17.673 14.327 32 32 32h405.333c17.673 0 32-14.327 32-32V138.667c0-17.673-14.327-32-32-32h-85.525a10.666 10.666 0 0 1-7.872-3.477L329.387 64H182.613l-35.883 39.189a10.666 10.666 0 0 1-7.872 3.477H53.333z"/></svg>