<svg xmlns="http://www.w3.org/2000/svg" viewBox="0 0 509.491 509.491"><linearGradient id="a" gradientUnits="userSpaceOnUse" x1="-31.192" y1="612.836" x2="-31.192" y2="641.219" gradientTransform="matrix(16 0 0 -16 753.813 10287.182)"><stop offset="0" stop-color="#fff"/><stop offset="1" stop-color="#fff"/></linearGradient><path fill="url(#a)" d="M254.746 404.221l-147.568 77.584 28.192-164.304L15.994 201.149l164.976-23.984 73.776-149.488 73.776 149.488 164.976 23.984-119.376 116.352 28.192 164.304z"/><path d="M508.714 196.205c-1.872-5.776-6.912-10.016-12.912-10.896l-156.64-22.768-70.064-141.952a16.042 16.042 0 0 0-14.352-8.912 16.042 16.042 0 0 0-14.352 8.912L170.33 162.541 13.69 185.309c-6.016.88-11.04 5.12-12.912 10.896s-.304 12.16 4.048 16.4L118.17 323.069 91.402 479.085c-1.024 5.984 1.456 12.08 6.368 15.648s11.472 4.048 16.848 1.216l140.128-73.648 140.112 73.68c5.376 2.832 11.936 2.352 16.848-1.216s7.392-9.664 6.368-15.648l-26.768-156.016L504.65 212.637a16.075 16.075 0 0 0 4.064-16.432zm-145.76 109.84a16.068 16.068 0 0 0-4.608 14.16l22.704 132.352-118.864-62.496a16.025 16.025 0 0 0-14.896 0l-118.864 62.496 22.704-132.352c.88-5.168-.848-10.512-4.608-14.16l-96.16-93.712 132.88-19.312a16.06 16.06 0 0 0 12.048-8.752l59.456-120.448 59.44 120.432a16.06 16.06 0 0 0 12.048 8.752l132.88 19.328-96.16 93.712z" fill="#009cbf"/></svg>